<?xml version="1.0" encoding="utf-8"?>
<!-- Uploaded to SVGRepo https://www.svgrepo.com -->
<svg version="1.1" id="_x31_" xmlns="http://www.w3.org/2000/svg" xmlns:xlink="http://www.w3.org/1999/xlink" x="0px" y="0px"
	 viewBox="0 0 128 128" style="enable-background:new 0 0 128 128;" xml:space="preserve">
<g>
	<circle cx="66.7" cy="14" r="10"/>
	<path d="M79.2,26.5H56.4c-3.2,0-6.4,1.2-8.9,3.6c-0.1,0.1-10.5,10.5-10.5,10.5h-6.7l2.1-14.4l-5.3,0l0.8-5.8h7.3v-1.3h-8.4
		l-0.9,7.1l-11,0.1l4,26.4l9.9-0.1l0.3-3.3h9.8c1.1,0,2.2-0.5,3-1.2l8.9-8.9c0.2-0.2,0.5-0.4,0.9-0.4c0.8,0,1.2,0.5,1.2,1.2v77.5
		c0,3.5,2.8,6.2,6.2,6.2s6.2-2.8,6.2-6.2V74c0-0.8,0.5-1.2,1.2-1.2s1.2,0.5,1.2,1.2v43.8c0,3.5,2.7,6.2,6.2,6.2
		c3.5,0,6.2-2.8,6.2-6.2V41.5c0-0.8,0.5-1.2,1.2-1.2s1.2,0.5,1.2,1.2v28.1c0,2.4,2,4.4,4.4,4.4s4.4-2,4.4-4.4V39
		C91.7,32.1,86.1,26.5,79.2,26.5z M27,27.5l4,0l-1.8,12.2h-3.8L27,27.5z M18.3,39.7l-1.9-12.1l9.3-0.1l-1.6,12.2H18.3z"/>
</g>
</svg>
